<mxfile host="app.diagrams.net" agent="Mozilla/5.0 (Macintosh; Intel Mac OS X 10_15_7) AppleWebKit/605.1.15 (KHTML, like Gecko) Version/18.3.1 Safari/605.1.15" version="26.2.8">
  <diagram name="第 1 页" id="t6YgSSl4vWrcZQtxlgzb">
    <mxGraphModel dx="654" dy="473" grid="1" gridSize="10" guides="1" tooltips="1" connect="1" arrows="1" fold="1" page="1" pageScale="1" pageWidth="827" pageHeight="1169" math="0" shadow="0">
      <root>
        <mxCell id="0" />
        <mxCell id="1" parent="0" />
        <mxCell id="jobD_LhT7MceTmapyyZZ-3" style="edgeStyle=orthogonalEdgeStyle;rounded=0;orthogonalLoop=1;jettySize=auto;html=1;exitX=0.5;exitY=1;exitDx=0;exitDy=0;entryX=0.5;entryY=0;entryDx=0;entryDy=0;fontFamily=Helvetica;fontSize=12;fontColor=default;" edge="1" parent="1" source="jobD_LhT7MceTmapyyZZ-1" target="jobD_LhT7MceTmapyyZZ-2">
          <mxGeometry relative="1" as="geometry" />
        </mxCell>
        <mxCell id="jobD_LhT7MceTmapyyZZ-1" value="&lt;font style=&quot;font-size: 15px;&quot;&gt;输入：B×S×D&lt;/font&gt;&lt;div&gt;&lt;font style=&quot;font-size: 15px;&quot;&gt;如 32×96×321&lt;/font&gt;&lt;/div&gt;" style="rounded=1;whiteSpace=wrap;html=1;" vertex="1" parent="1">
          <mxGeometry x="220" y="280" width="120" height="40" as="geometry" />
        </mxCell>
        <mxCell id="jobD_LhT7MceTmapyyZZ-5" style="edgeStyle=orthogonalEdgeStyle;rounded=0;orthogonalLoop=1;jettySize=auto;html=1;exitX=0.5;exitY=1;exitDx=0;exitDy=0;entryX=0.5;entryY=0;entryDx=0;entryDy=0;fontFamily=Helvetica;fontSize=12;fontColor=default;" edge="1" parent="1" source="jobD_LhT7MceTmapyyZZ-2" target="jobD_LhT7MceTmapyyZZ-4">
          <mxGeometry relative="1" as="geometry" />
        </mxCell>
        <mxCell id="jobD_LhT7MceTmapyyZZ-2" value="&lt;font style=&quot;font-size: 15px;&quot;&gt;通道嵌入：B×S×model_dim&lt;/font&gt;&lt;div&gt;&lt;font style=&quot;font-size: 15px;&quot;&gt;如 32×96×521&lt;/font&gt;&lt;/div&gt;" style="rounded=1;whiteSpace=wrap;html=1;" vertex="1" parent="1">
          <mxGeometry x="170" y="370" width="220" height="50" as="geometry" />
        </mxCell>
        <mxCell id="jobD_LhT7MceTmapyyZZ-9" style="edgeStyle=orthogonalEdgeStyle;rounded=0;orthogonalLoop=1;jettySize=auto;html=1;exitX=0.5;exitY=1;exitDx=0;exitDy=0;entryX=0.5;entryY=0;entryDx=0;entryDy=0;fontFamily=Helvetica;fontSize=12;fontColor=default;" edge="1" parent="1" source="jobD_LhT7MceTmapyyZZ-4" target="jobD_LhT7MceTmapyyZZ-6">
          <mxGeometry relative="1" as="geometry" />
        </mxCell>
        <mxCell id="jobD_LhT7MceTmapyyZZ-13" style="edgeStyle=orthogonalEdgeStyle;rounded=0;orthogonalLoop=1;jettySize=auto;html=1;exitX=1;exitY=0.5;exitDx=0;exitDy=0;entryX=0;entryY=0.5;entryDx=0;entryDy=0;fontFamily=Helvetica;fontSize=12;fontColor=default;" edge="1" parent="1" source="jobD_LhT7MceTmapyyZZ-4" target="jobD_LhT7MceTmapyyZZ-12">
          <mxGeometry relative="1" as="geometry" />
        </mxCell>
        <mxCell id="jobD_LhT7MceTmapyyZZ-17" style="edgeStyle=orthogonalEdgeStyle;rounded=0;orthogonalLoop=1;jettySize=auto;html=1;exitX=1;exitY=0.5;exitDx=0;exitDy=0;entryX=0;entryY=0.25;entryDx=0;entryDy=0;fontFamily=Helvetica;fontSize=12;fontColor=default;movable=0;resizable=0;rotatable=0;deletable=0;editable=0;locked=1;connectable=0;" edge="1" parent="1" source="jobD_LhT7MceTmapyyZZ-4" target="jobD_LhT7MceTmapyyZZ-12">
          <mxGeometry relative="1" as="geometry">
            <Array as="points">
              <mxPoint x="520" y="495" />
              <mxPoint x="520" y="483" />
            </Array>
          </mxGeometry>
        </mxCell>
        <mxCell id="jobD_LhT7MceTmapyyZZ-18" style="edgeStyle=orthogonalEdgeStyle;rounded=0;orthogonalLoop=1;jettySize=auto;html=1;exitX=1;exitY=0.5;exitDx=0;exitDy=0;entryX=0;entryY=0.75;entryDx=0;entryDy=0;fontFamily=Helvetica;fontSize=12;fontColor=default;movable=0;resizable=0;rotatable=0;deletable=0;editable=0;locked=1;connectable=0;" edge="1" parent="1" source="jobD_LhT7MceTmapyyZZ-4" target="jobD_LhT7MceTmapyyZZ-12">
          <mxGeometry relative="1" as="geometry">
            <Array as="points">
              <mxPoint x="520" y="495" />
              <mxPoint x="520" y="507" />
            </Array>
          </mxGeometry>
        </mxCell>
        <mxCell id="jobD_LhT7MceTmapyyZZ-23" style="edgeStyle=orthogonalEdgeStyle;rounded=0;orthogonalLoop=1;jettySize=auto;html=1;exitX=1;exitY=0.5;exitDx=0;exitDy=0;entryX=0.5;entryY=0;entryDx=0;entryDy=0;fontFamily=Helvetica;fontSize=12;fontColor=default;" edge="1" parent="1" source="jobD_LhT7MceTmapyyZZ-4" target="jobD_LhT7MceTmapyyZZ-19">
          <mxGeometry relative="1" as="geometry">
            <Array as="points">
              <mxPoint x="500" y="495" />
              <mxPoint x="500" y="450" />
              <mxPoint x="803" y="450" />
            </Array>
          </mxGeometry>
        </mxCell>
        <mxCell id="jobD_LhT7MceTmapyyZZ-4" value="&lt;font style=&quot;font-size: 15px;&quot;&gt;permute：B×model_dim&lt;/font&gt;&lt;span style=&quot;font-size: 15px;&quot;&gt;×S&lt;/span&gt;&lt;div&gt;&lt;font style=&quot;font-size: 15px;&quot;&gt;如 32×521×96&lt;/font&gt;&lt;/div&gt;" style="rounded=1;whiteSpace=wrap;html=1;" vertex="1" parent="1">
          <mxGeometry x="250" y="470" width="220" height="50" as="geometry" />
        </mxCell>
        <mxCell id="jobD_LhT7MceTmapyyZZ-10" style="edgeStyle=orthogonalEdgeStyle;rounded=0;orthogonalLoop=1;jettySize=auto;html=1;exitX=0.5;exitY=1;exitDx=0;exitDy=0;fontFamily=Helvetica;fontSize=12;fontColor=default;" edge="1" parent="1" source="jobD_LhT7MceTmapyyZZ-6" target="jobD_LhT7MceTmapyyZZ-7">
          <mxGeometry relative="1" as="geometry" />
        </mxCell>
        <mxCell id="jobD_LhT7MceTmapyyZZ-35" style="edgeStyle=orthogonalEdgeStyle;rounded=0;orthogonalLoop=1;jettySize=auto;html=1;exitX=1;exitY=0.5;exitDx=0;exitDy=0;entryX=0;entryY=0.5;entryDx=0;entryDy=0;fontFamily=Helvetica;fontSize=12;fontColor=default;" edge="1" parent="1" source="jobD_LhT7MceTmapyyZZ-6" target="jobD_LhT7MceTmapyyZZ-31">
          <mxGeometry relative="1" as="geometry" />
        </mxCell>
        <mxCell id="jobD_LhT7MceTmapyyZZ-40" style="edgeStyle=orthogonalEdgeStyle;rounded=0;orthogonalLoop=1;jettySize=auto;html=1;exitX=1;exitY=0.5;exitDx=0;exitDy=0;entryX=0.5;entryY=0;entryDx=0;entryDy=0;fontFamily=Helvetica;fontSize=12;fontColor=default;" edge="1" parent="1" source="jobD_LhT7MceTmapyyZZ-6" target="jobD_LhT7MceTmapyyZZ-32">
          <mxGeometry relative="1" as="geometry">
            <Array as="points">
              <mxPoint x="580" y="655" />
              <mxPoint x="580" y="610" />
              <mxPoint x="903" y="610" />
            </Array>
          </mxGeometry>
        </mxCell>
        <mxCell id="jobD_LhT7MceTmapyyZZ-6" value="&lt;font style=&quot;font-size: 15px;&quot;&gt;permute：B×model_dim&lt;/font&gt;&lt;span style=&quot;font-size: 15px;&quot;&gt;×(S/2)&lt;/span&gt;&lt;div&gt;&lt;font style=&quot;font-size: 15px;&quot;&gt;如 32×521×48&lt;/font&gt;&lt;/div&gt;" style="rounded=1;whiteSpace=wrap;html=1;" vertex="1" parent="1">
          <mxGeometry x="340" y="630" width="220" height="50" as="geometry" />
        </mxCell>
        <mxCell id="jobD_LhT7MceTmapyyZZ-11" style="edgeStyle=orthogonalEdgeStyle;rounded=0;orthogonalLoop=1;jettySize=auto;html=1;exitX=0.5;exitY=1;exitDx=0;exitDy=0;entryX=0.5;entryY=0;entryDx=0;entryDy=0;fontFamily=Helvetica;fontSize=12;fontColor=default;" edge="1" parent="1" source="jobD_LhT7MceTmapyyZZ-7" target="jobD_LhT7MceTmapyyZZ-8">
          <mxGeometry relative="1" as="geometry" />
        </mxCell>
        <mxCell id="jobD_LhT7MceTmapyyZZ-7" value="&lt;font style=&quot;font-size: 15px;&quot;&gt;permute：B×model_dim&lt;/font&gt;&lt;span style=&quot;font-size: 15px;&quot;&gt;×(S/4)&lt;/span&gt;&lt;div&gt;&lt;font style=&quot;font-size: 15px;&quot;&gt;如 32×521×24&lt;/font&gt;&lt;/div&gt;" style="rounded=1;whiteSpace=wrap;html=1;" vertex="1" parent="1">
          <mxGeometry x="414" y="780" width="220" height="50" as="geometry" />
        </mxCell>
        <mxCell id="jobD_LhT7MceTmapyyZZ-8" value="&lt;font style=&quot;font-size: 15px;&quot;&gt;permute：B×model_dim&lt;/font&gt;&lt;span style=&quot;font-size: 15px;&quot;&gt;×(S/8)&lt;/span&gt;&lt;div&gt;&lt;font style=&quot;font-size: 15px;&quot;&gt;如 32×521×12&lt;/font&gt;&lt;/div&gt;" style="rounded=1;whiteSpace=wrap;html=1;" vertex="1" parent="1">
          <mxGeometry x="530" y="950" width="220" height="50" as="geometry" />
        </mxCell>
        <mxCell id="jobD_LhT7MceTmapyyZZ-20" style="edgeStyle=orthogonalEdgeStyle;rounded=0;orthogonalLoop=1;jettySize=auto;html=1;exitX=1;exitY=0.5;exitDx=0;exitDy=0;entryX=0;entryY=0.5;entryDx=0;entryDy=0;fontFamily=Helvetica;fontSize=12;fontColor=default;" edge="1" parent="1" source="jobD_LhT7MceTmapyyZZ-12" target="jobD_LhT7MceTmapyyZZ-19">
          <mxGeometry relative="1" as="geometry" />
        </mxCell>
        <mxCell id="jobD_LhT7MceTmapyyZZ-12" value="&lt;font style=&quot;font-size: 15px;&quot;&gt;AutoCorrelation：B×S×D&lt;/font&gt;&lt;div&gt;&lt;font style=&quot;font-size: 15px;&quot;&gt;out： 32×521×96&lt;/font&gt;&lt;/div&gt;" style="rounded=1;whiteSpace=wrap;html=1;" vertex="1" parent="1">
          <mxGeometry x="560" y="470" width="190" height="50" as="geometry" />
        </mxCell>
        <mxCell id="jobD_LhT7MceTmapyyZZ-26" style="edgeStyle=orthogonalEdgeStyle;rounded=0;orthogonalLoop=1;jettySize=auto;html=1;exitX=1;exitY=0.5;exitDx=0;exitDy=0;entryX=0;entryY=0.5;entryDx=0;entryDy=0;fontFamily=Helvetica;fontSize=12;fontColor=default;" edge="1" parent="1" source="jobD_LhT7MceTmapyyZZ-19" target="jobD_LhT7MceTmapyyZZ-25">
          <mxGeometry relative="1" as="geometry" />
        </mxCell>
        <mxCell id="jobD_LhT7MceTmapyyZZ-29" style="edgeStyle=orthogonalEdgeStyle;rounded=0;orthogonalLoop=1;jettySize=auto;html=1;exitX=1;exitY=0.5;exitDx=0;exitDy=0;entryX=0.5;entryY=0;entryDx=0;entryDy=0;fontFamily=Helvetica;fontSize=12;fontColor=default;" edge="1" parent="1" source="jobD_LhT7MceTmapyyZZ-19" target="jobD_LhT7MceTmapyyZZ-27">
          <mxGeometry relative="1" as="geometry">
            <Array as="points">
              <mxPoint x="840" y="495" />
              <mxPoint x="840" y="450" />
              <mxPoint x="1033" y="450" />
            </Array>
          </mxGeometry>
        </mxCell>
        <mxCell id="jobD_LhT7MceTmapyyZZ-19" value="" style="shape=orEllipse;perimeter=ellipsePerimeter;whiteSpace=wrap;html=1;backgroundOutline=1;rounded=1;strokeColor=default;align=center;verticalAlign=middle;fontFamily=Helvetica;fontSize=12;fontColor=default;fillColor=default;" vertex="1" parent="1">
          <mxGeometry x="790" y="482.5" width="25" height="25" as="geometry" />
        </mxCell>
        <mxCell id="jobD_LhT7MceTmapyyZZ-28" style="edgeStyle=orthogonalEdgeStyle;rounded=0;orthogonalLoop=1;jettySize=auto;html=1;exitX=1;exitY=0.5;exitDx=0;exitDy=0;entryX=0;entryY=0.5;entryDx=0;entryDy=0;fontFamily=Helvetica;fontSize=12;fontColor=default;" edge="1" parent="1" source="jobD_LhT7MceTmapyyZZ-25" target="jobD_LhT7MceTmapyyZZ-27">
          <mxGeometry relative="1" as="geometry" />
        </mxCell>
        <mxCell id="jobD_LhT7MceTmapyyZZ-25" value="&lt;font style=&quot;font-size: 15px;&quot;&gt;GRU：B×S×D&lt;/font&gt;&lt;div&gt;&lt;font style=&quot;font-size: 15px;&quot;&gt;如 32×521×96&lt;/font&gt;&lt;/div&gt;" style="rounded=1;whiteSpace=wrap;html=1;" vertex="1" parent="1">
          <mxGeometry x="860" y="475" width="120" height="40" as="geometry" />
        </mxCell>
        <mxCell id="jobD_LhT7MceTmapyyZZ-30" style="edgeStyle=orthogonalEdgeStyle;rounded=0;orthogonalLoop=1;jettySize=auto;html=1;exitX=1;exitY=0.5;exitDx=0;exitDy=0;fontFamily=Helvetica;fontSize=12;fontColor=default;" edge="1" parent="1" source="jobD_LhT7MceTmapyyZZ-27">
          <mxGeometry relative="1" as="geometry">
            <mxPoint x="1100" y="494.66666666666674" as="targetPoint" />
          </mxGeometry>
        </mxCell>
        <mxCell id="jobD_LhT7MceTmapyyZZ-27" value="" style="shape=orEllipse;perimeter=ellipsePerimeter;whiteSpace=wrap;html=1;backgroundOutline=1;rounded=1;strokeColor=default;align=center;verticalAlign=middle;fontFamily=Helvetica;fontSize=12;fontColor=default;fillColor=default;" vertex="1" parent="1">
          <mxGeometry x="1020" y="482.5" width="25" height="25" as="geometry" />
        </mxCell>
        <mxCell id="jobD_LhT7MceTmapyyZZ-36" style="edgeStyle=orthogonalEdgeStyle;rounded=0;orthogonalLoop=1;jettySize=auto;html=1;exitX=1;exitY=0.5;exitDx=0;exitDy=0;entryX=0;entryY=0.5;entryDx=0;entryDy=0;fontFamily=Helvetica;fontSize=12;fontColor=default;" edge="1" parent="1" source="jobD_LhT7MceTmapyyZZ-31" target="jobD_LhT7MceTmapyyZZ-32">
          <mxGeometry relative="1" as="geometry" />
        </mxCell>
        <mxCell id="jobD_LhT7MceTmapyyZZ-31" value="&lt;font style=&quot;font-size: 15px;&quot;&gt;AutoCorrelation：B×S×D&lt;/font&gt;&lt;div&gt;&lt;font style=&quot;font-size: 15px;&quot;&gt;out： 32×521×96&lt;/font&gt;&lt;/div&gt;" style="rounded=1;whiteSpace=wrap;html=1;" vertex="1" parent="1">
          <mxGeometry x="634" y="630" width="190" height="50" as="geometry" />
        </mxCell>
        <mxCell id="jobD_LhT7MceTmapyyZZ-37" style="edgeStyle=orthogonalEdgeStyle;rounded=0;orthogonalLoop=1;jettySize=auto;html=1;exitX=1;exitY=0.5;exitDx=0;exitDy=0;entryX=0;entryY=0.5;entryDx=0;entryDy=0;fontFamily=Helvetica;fontSize=12;fontColor=default;" edge="1" parent="1" source="jobD_LhT7MceTmapyyZZ-32" target="jobD_LhT7MceTmapyyZZ-33">
          <mxGeometry relative="1" as="geometry" />
        </mxCell>
        <mxCell id="jobD_LhT7MceTmapyyZZ-32" value="" style="shape=orEllipse;perimeter=ellipsePerimeter;whiteSpace=wrap;html=1;backgroundOutline=1;rounded=1;strokeColor=default;align=center;verticalAlign=middle;fontFamily=Helvetica;fontSize=12;fontColor=default;fillColor=default;" vertex="1" parent="1">
          <mxGeometry x="890" y="642.5" width="25" height="25" as="geometry" />
        </mxCell>
        <mxCell id="jobD_LhT7MceTmapyyZZ-38" style="edgeStyle=orthogonalEdgeStyle;rounded=0;orthogonalLoop=1;jettySize=auto;html=1;exitX=1;exitY=0.5;exitDx=0;exitDy=0;entryX=0;entryY=0.5;entryDx=0;entryDy=0;fontFamily=Helvetica;fontSize=12;fontColor=default;" edge="1" parent="1" source="jobD_LhT7MceTmapyyZZ-33" target="jobD_LhT7MceTmapyyZZ-34">
          <mxGeometry relative="1" as="geometry" />
        </mxCell>
        <mxCell id="jobD_LhT7MceTmapyyZZ-33" value="&lt;font style=&quot;font-size: 15px;&quot;&gt;GRU：B×S×D&lt;/font&gt;&lt;div&gt;&lt;font style=&quot;font-size: 15px;&quot;&gt;如 32×521×96&lt;/font&gt;&lt;/div&gt;" style="rounded=1;whiteSpace=wrap;html=1;" vertex="1" parent="1">
          <mxGeometry x="980" y="635" width="120" height="40" as="geometry" />
        </mxCell>
        <mxCell id="jobD_LhT7MceTmapyyZZ-39" style="edgeStyle=orthogonalEdgeStyle;rounded=0;orthogonalLoop=1;jettySize=auto;html=1;exitX=1;exitY=0.5;exitDx=0;exitDy=0;fontFamily=Helvetica;fontSize=12;fontColor=default;" edge="1" parent="1" source="jobD_LhT7MceTmapyyZZ-34">
          <mxGeometry relative="1" as="geometry">
            <mxPoint x="1250" y="655.3529411764707" as="targetPoint" />
          </mxGeometry>
        </mxCell>
        <mxCell id="jobD_LhT7MceTmapyyZZ-34" value="" style="shape=orEllipse;perimeter=ellipsePerimeter;whiteSpace=wrap;html=1;backgroundOutline=1;rounded=1;strokeColor=default;align=center;verticalAlign=middle;fontFamily=Helvetica;fontSize=12;fontColor=default;fillColor=default;" vertex="1" parent="1">
          <mxGeometry x="1170" y="642.5" width="25" height="25" as="geometry" />
        </mxCell>
      </root>
    </mxGraphModel>
  </diagram>
</mxfile>
